HIERARCHY
ROOT root
{
	OFFSET 0.000000 0.000000 0.000000
	CHANNELS 6 Xposition Yposition Zposition Zrotation Yrotation Xrotation
	JOINT lhip
	{
		OFFSET 0.058581 -0.082280 -0.017664
		CHANNELS 3 Zrotation Yrotation Xrotation
		JOINT lknee
		{
			OFFSET 0.043451 -0.386469 0.008037
			CHANNELS 3 Zrotation Yrotation Xrotation
			JOINT lankle
			{
				OFFSET -0.014790 -0.426874 -0.037428
				CHANNELS 3 Zrotation Yrotation Xrotation
				JOINT ltoe
				{
					OFFSET 0.041054 -0.060286 0.122042
					CHANNELS 3 Zrotation Yrotation Xrotation
					End Site
					{
						OFFSET 0.000000 0.000000 0.000000
					}
				}
			}
		}
	}
	JOINT rhip
	{
		OFFSET -0.060310 -0.090513 -0.013543
		CHANNELS 3 Zrotation Yrotation Xrotation
		JOINT rknee
		{
			OFFSET -0.043257 -0.383688 -0.004843
			CHANNELS 3 Zrotation Yrotation Xrotation
			JOINT rankle
			{
				OFFSET 0.019056 -0.420046 -0.034562
				CHANNELS 3 Zrotation Yrotation Xrotation
				JOINT rtoe
				{
					OFFSET -0.034840 -0.062106 0.130323
					CHANNELS 3 Zrotation Yrotation Xrotation
					End Site
					{
						OFFSET 0.000000 0.000000 0.000000
					}
				}
			}
		}
	}
	JOINT lowerback
	{
		OFFSET 0.004439 0.124404 -0.038385
		CHANNELS 3 Zrotation Yrotation Xrotation
		JOINT upperback
		{
			OFFSET 0.004488 0.137956 0.026820
			CHANNELS 3 Zrotation Yrotation Xrotation
			JOINT chest
			{
				OFFSET -0.002265 0.056032 0.002855
				CHANNELS 3 Zrotation Yrotation Xrotation
				JOINT lowerneck
				{
					OFFSET -0.013390 0.211636 -0.033468
					CHANNELS 3 Zrotation Yrotation Xrotation
					JOINT upperneck
					{
						OFFSET 0.010113 0.088937 0.050410
						CHANNELS 3 Zrotation Yrotation Xrotation
						End Site
						{
							OFFSET 0.000000 0.000000 0.000000
						}
					}
				}
				JOINT lclavicle
				{
					OFFSET 0.071702 0.114000 -0.018898
					CHANNELS 3 Zrotation Yrotation Xrotation
					JOINT lshoulder
					{
						OFFSET 0.122921 0.045205 -0.019046
						CHANNELS 3 Zrotation Yrotation Xrotation
						JOINT lelbow
						{
							OFFSET 0.255332 -0.015649 -0.022946
							CHANNELS 3 Zrotation Yrotation Xrotation
							JOINT lwrist
							{
								OFFSET 0.265709 0.012698 -0.007375
								CHANNELS 3 Zrotation Yrotation Xrotation
								End Site
								{
									OFFSET 0.000000 0.000000 0.000000
								}
							}
						}
					}
				}
				JOINT rclavicle
				{
					OFFSET -0.082954 0.112472 -0.023707
					CHANNELS 3 Zrotation Yrotation Xrotation
					JOINT rshoulder
					{
						OFFSET -0.113228 0.046853 -0.008472
						CHANNELS 3 Zrotation Yrotation Xrotation
						JOINT relbow
						{
							OFFSET -0.260127 -0.014369 -0.031269
							CHANNELS 3 Zrotation Yrotation Xrotation
							JOINT rwrist
							{
								OFFSET -0.269108 0.006794 -0.006027
								CHANNELS 3 Zrotation Yrotation Xrotation
								End Site
								{
									OFFSET 0.000000 0.000000 0.000000
								}
							}
						}
					}
				}
			}
		}
	}
}
MOTION
Frames: 12
Frame Time: 0.033333
1.245553 0.718578 1.001210 -92.024737 0.312680 85.487972 -0.978932 -1.175658 1.329422 -0.689925 -6.741114 4.082380 2.746809 10.032739 -8.109374 0.000000 -0.000000 0.000000 0.747351 -1.799224 1.233351 -2.028504 1.652234 7.112919 2.100557 -8.263924 -13.007145 0.000000 -0.000000 0.000000 -0.550057 2.690491 6.439777 -0.335650 -2.778519 3.016095 -1.237738 0.483226 -3.879576 0.755392 0.150746 -9.159499 3.104289 -1.336741 4.618134 -30.470308 -6.417658 0.476459 -50.867456 -7.794462 12.504258 3.919673 -24.411414 -0.659434 -3.040417 -8.780088 0.701431 30.515713 10.051925 3.688365 54.944519 6.306038 15.109311 -12.215970 26.889895 -2.890292 2.846511 7.186424 6.058286 
1.244875 0.719817 1.000669 -93.337268 0.194581 85.814051 -0.973057 -0.954098 1.034048 -0.795271 -6.296949 4.324375 2.924643 10.600730 -8.157451 0.000000 -0.000000 0.000000 0.807554 -1.048229 0.655928 -2.008480 2.289329 7.426719 2.028025 -8.000122 -13.247979 0.000000 -0.000000 0.000000 -0.745054 2.488190 6.536097 -0.257009 -2.502189 2.679270 -1.144044 0.566879 -3.819003 0.668391 0.692300 -9.468403 3.209894 -0.556300 4.085927 -30.184334 -6.006729 0.083182 -51.443352 -7.361918 12.772647 4.312200 -23.324612 -0.766834 -4.001545 -8.381675 0.896062 30.243688 9.781066 3.499383 55.516594 5.885299 15.676342 -12.062072 26.875446 -2.326413 3.889346 6.943637 5.507445 
1.243582 0.720476 1.000508 -94.307759 0.012490 85.931285 -1.135048 -0.755448 1.223595 -0.797884 -6.156363 4.116343 3.028030 11.057725 -8.114710 0.000000 -0.000000 0.000000 0.719701 -0.719807 0.266287 -2.172717 2.480701 7.832507 1.877732 -7.868366 -11.716216 0.000000 -0.000000 0.000000 -0.872886 2.119245 6.732435 -0.216893 -2.531508 2.619727 -1.086095 0.627963 -3.817470 0.636834 1.074309 -9.952342 3.242657 0.294845 3.258286 -29.969364 -5.521307 0.039267 -51.883437 -6.822446 12.637340 4.954562 -22.461880 -0.992384 -5.128594 -8.219099 1.302252 29.932563 9.472472 3.464433 55.568562 5.695099 15.640183 -11.899588 26.887294 -1.892704 4.749919 6.741712 5.761194 
1.241731 0.721776 1.000854 -95.383592 -0.124422 86.028859 -1.152956 -0.468843 1.679737 -0.775414 -5.975829 3.615511 3.036926 11.235502 -7.969022 0.000000 -0.000000 0.000000 0.773597 -0.426675 0.077125 -2.468912 2.596996 7.840769 1.617469 -7.518859 -9.522570 0.000000 -0.000000 0.000000 -1.003384 1.925634 6.139206 -0.148517 -2.791102 3.805775 -1.085014 0.594860 -3.819887 0.589659 1.813085 -10.346256 3.429921 1.178335 1.768898 -29.865374 -5.495133 0.422891 -52.005162 -6.329069 12.082160 5.829515 -21.434786 -2.191399 -5.884831 -7.992524 1.741938 29.673927 9.621825 3.519273 55.110633 5.598269 15.184249 -12.175435 26.508492 -2.332886 5.167660 6.464540 6.054725 
1.240922 0.722365 1.001162 -95.497668 -0.047911 86.202806 -1.049846 -0.416466 1.580010 -0.679098 -5.863912 3.540361 2.963371 11.240757 -7.928357 0.000000 -0.000000 0.000000 0.856740 -0.546649 -0.078721 -2.580734 2.421873 7.683382 1.639983 -7.456989 -8.763267 0.000000 -0.000000 0.000000 -0.880808 1.724500 6.332765 -0.107872 -3.055533 3.627876 -1.001501 0.555495 -3.750543 0.508116 1.928652 -10.549185 3.303577 1.428064 1.071417 -29.760130 -5.027954 0.320376 -52.111778 -5.951860 11.843428 5.945933 -20.862818 -2.287800 -5.735909 -8.070973 1.608266 29.323252 8.920845 2.987496 54.862644 5.166823 14.781696 -12.089256 26.332144 -2.105403 4.805973 6.523018 6.437123 
1.239593 0.723327 1.002204 -96.412494 -0.229875 86.533028 -1.228700 0.175047 1.816708 -0.427680 -5.777061 2.818693 2.796004 11.583277 -7.989969 0.000000 -0.000000 0.000000 0.680373 -0.334596 -0.301287 -2.557616 2.538564 7.429767 1.959758 -7.232985 -8.446380 0.000000 -0.000000 0.000000 -0.894552 1.588698 5.635092 -0.123331 -2.880270 4.625173 -1.212972 0.703203 -3.911346 0.292033 2.199482 -10.731596 3.371503 1.618482 0.076616 -29.570009 -4.931180 0.233611 -52.049950 -5.445699 11.722609 6.145689 -19.971412 -3.134214 -5.990249 -8.071805 2.367751 29.150371 8.838107 3.018785 54.112122 4.673996 14.249971 -12.348433 25.867190 -2.853619 4.193198 6.786683 7.137872 
1.239742 0.724728 1.002635 -96.440310 -0.227798 87.078174 -1.153453 0.414973 1.398589 -0.328987 -5.981548 2.524693 2.614981 11.719191 -8.344698 0.000000 -0.000000 0.000000 0.701257 -0.480364 -0.675631 -2.472042 2.319544 6.902361 2.135290 -7.414032 -7.976505 0.000000 -0.000000 0.000000 -0.861028 1.335166 6.020710 -0.096902 -2.934428 3.897075 -1.242994 0.734966 -4.046875 0.088222 1.983895 -10.535525 3.575050 1.945382 -0.556034 -29.287424 -4.420232 -0.105845 -52.092919 -4.722673 12.204966 5.843648 -19.284409 -2.659266 -5.535691 -7.976446 2.726276 28.516291 8.192708 2.804515 53.545603 3.545915 14.181193 -11.946374 26.010278 -2.572007 3.525159 7.176825 7.082808 
1.239434 0.725443 1.002772 -95.920566 -0.299987 87.692595 -1.408274 0.283914 0.735817 -0.040804 -6.499678 2.544167 2.801055 12.093351 -9.164006 0.000000 -0.000000 0.000000 0.602266 -0.845570 -1.139790 -2.365407 2.223877 6.598091 2.196458 -7.841548 -7.853831 0.000000 -0.000000 0.000000 -0.807493 1.511464 5.325625 0.041013 -3.382042 4.602354 -1.466050 0.518472 -4.223301 -0.106893 1.546181 -10.374898 3.872583 1.735397 -1.488928 -29.189617 -4.380972 -0.403635 -51.767501 -4.307447 12.607515 5.464782 -18.999978 -2.707270 -6.570257 -7.667463 3.572165 27.900300 7.812628 2.693574 52.662343 2.103397 14.195976 -11.112349 26.877080 -1.760141 4.306263 7.387538 7.501241 
1.239577 0.726310 1.002595 -95.333113 -0.226161 88.124107 -1.447356 0.614380 0.152764 0.398668 -5.731502 2.886828 3.431070 12.882679 -10.235768 0.000000 -0.000000 0.000000 0.818176 -0.965438 -1.633353 -2.382575 2.151091 6.680048 2.293432 -8.373593 -8.091545 0.000000 -0.000000 0.000000 -0.737582 1.396725 5.476372 0.111719 -3.590531 4.281313 -1.613038 0.369528 -4.033912 0.028640 1.185249 -10.447638 3.992835 1.706720 -2.279871 -29.168950 -4.210028 -0.882340 -51.375549 -3.921111 13.107901 5.003557 -19.012118 -2.106352 -6.533105 -7.624109 4.082271 27.308263 7.280607 2.375124 51.799128 0.713073 14.698696 -9.714621 27.658171 0.048441 4.291726 7.432964 8.058552 
1.238719 0.727543 1.002392 -94.918673 -0.144963 88.324993 -1.193262 1.476776 0.058877 0.809098 -4.046453 2.886300 4.502333 14.506318 -11.435038 0.000000 -0.000000 0.000000 1.185385 -1.057090 -2.192394 -2.527386 2.194436 7.473630 2.261623 -8.795965 -8.700425 0.000000 -0.000000 0.000000 -0.802610 1.282133 5.738877 0.135297 -3.541159 4.192361 -1.729030 0.326565 -3.954617 0.424377 0.684209 -10.445808 4.252935 1.505663 -2.685943 -29.134897 -4.204082 -1.319947 -50.823257 -3.523932 13.695872 4.074654 -19.241827 -1.179614 -6.595589 -7.314229 4.767771 26.766250 6.849843 2.161184 51.020112 -0.967033 15.481817 -7.722386 27.736151 2.764624 4.588350 7.781819 8.848214 
1.237921 0.728774 1.002220 -94.522778 -0.150467 88.163729 -0.978258 1.817899 0.160581 0.762263 -3.727093 2.883977 4.402160 14.360925 -9.810321 0.000000 -0.000000 0.000000 1.284577 -0.907000 -2.073495 -2.504145 1.967542 7.726825 2.125347 -9.048394 -8.966879 0.000000 -0.000000 0.000000 -0.978044 1.133848 5.886184 0.055669 -3.473895 4.420080 -1.773087 0.423297 -3.781521 0.618263 0.374586 -10.186129 4.530699 1.168669 -2.923636 -29.061872 -4.398512 -1.421856 -50.590339 -3.870179 13.966005 3.397653 -18.947589 -0.385511 -6.931949 -7.486492 5.406473 26.543465 6.721058 2.222278 51.079937 -1.873294 15.907112 -6.956287 26.842738 4.164024 4.878705 7.509905 9.537214 
1.236984 0.730214 1.001658 -94.210295 -0.179301 88.031543 -0.711921 1.725650 -0.208958 0.377119 -3.906048 3.893158 4.206781 14.202913 -8.634609 0.000000 -0.000000 0.000000 1.341205 -0.823304 -2.011249 -2.405552 1.882121 8.100746 1.853893 -9.278108 -9.333556 0.000000 -0.000000 0.000000 -1.069815 0.991610 6.054092 -0.077817 -3.388553 4.281140 -1.924094 0.498173 -3.634131 0.716087 0.165488 -9.659721 4.829616 0.955469 -2.543988 -29.141583 -4.590458 -1.214563 -50.361024 -4.243809 14.453562 2.917656 -18.550414 0.632565 -7.217801 -7.463981 5.708249 26.394929 6.746640 2.355708 51.864365 -2.462975 16.277032 -6.678535 25.266558 4.604508 5.166793 6.499363 8.749122 
